<?xml version="1.0" standalone="no"?>
<!DOCTYPE svg PUBLIC "-//W3C//DTD SVG 20010904//EN"
 "http://www.w3.org/TR/2001/REC-SVG-20010904/DTD/svg10.dtd">
<svg version="1.0" xmlns="http://www.w3.org/2000/svg"
 width="441.000000pt" height="432.000000pt" viewBox="0 0 441.000000 432.000000"
 preserveAspectRatio="xMidYMid meet">

<g transform="translate(0.000000,432.000000) scale(0.100000,-0.100000)"
fill="#000000" stroke="none">
<path d="M1850 3919 c-162 -32 -475 -93 -695 -136 l-400 -78 -5 -860 -5 -860
-22 -41 c-38 -71 -109 -120 -189 -131 -52 -7 -103 -38 -121 -73 -10 -19 -13
-102 -11 -347 l3 -323 32 -32 33 -32 162 -12 c311 -24 488 -78 601 -182 59
-55 82 -104 92 -189 4 -38 13 -67 23 -76 12 -9 79 -19 210 -31 l193 -17 122
-73 c141 -85 259 -146 283 -146 23 0 191 85 310 158 l100 61 190 17 c220 19
234 24 234 88 0 227 223 352 697 390 244 20 233 0 233 408 0 268 -2 307 -18
338 -20 41 -62 64 -146 79 -72 13 -125 46 -157 98 l-24 38 -5 875 -5 874 -675
132 c-371 72 -691 133 -710 136 -22 4 -144 -16 -330 -53z m720 -128 c393 -76
851 -167 888 -176 l22 -5 0 -743 c0 -659 -7 -930 -26 -989 -5 -17 -75 -18
-1294 -18 l-1288 0 -7 33 c-4 17 -10 411 -12 874 l-4 842 23 6 c141 35 1272
253 1298 250 19 -2 199 -35 400 -74z m-330 -2052 l0 -40 -47 3 c-48 3 -48 3
-51 41 l-3 37 50 0 51 0 0 -41z m1288 3 c14 -9 222 -592 222 -623 0 -18 -6
-20 -97 -17 l-98 3 -20 58 -20 58 -104 -3 -104 -3 -16 -45 c-9 -25 -20 -51
-24 -58 -10 -15 -153 -17 -162 -2 -6 10 200 605 218 628 11 14 183 17 205 4z
m-2619 -12 c127 -17 213 -71 264 -165 19 -34 22 -56 22 -150 0 -100 -2 -115
-27 -161 -37 -70 -98 -120 -176 -144 -52 -16 -93 -20 -222 -20 -155 0 -158 0
-164 23 -10 39 -7 587 4 608 10 17 22 19 118 19 59 0 140 -5 181 -10z m635
-61 c57 -16 86 -49 86 -99 0 -33 -6 -48 -30 -72 -34 -34 -34 -41 6 -120 13
-26 24 -52 24 -58 0 -6 -25 -10 -58 -10 l-58 0 -23 65 c-39 111 -71 113 -71 4
l0 -69 -55 0 -55 0 0 185 0 185 98 0 c53 0 114 -5 136 -11z m236 -103 c0 -62
5 -127 11 -144 20 -57 90 -45 103 19 3 17 6 78 6 136 l0 104 43 -3 42 -3 0
-142 c0 -128 -2 -144 -21 -170 -29 -39 -67 -55 -133 -56 -65 0 -106 16 -135
56 -18 25 -21 46 -25 158 -1 71 0 136 3 144 4 11 20 15 56 15 l50 0 0 -114z
m568 89 c1 -12 -31 -67 -83 -140 l-86 -120 83 -5 83 -5 0 -35 0 -35 -162 -3
c-160 -2 -163 -2 -163 19 0 12 36 72 80 135 44 62 80 115 80 118 0 3 -30 6
-67 8 l-68 3 -3 43 -3 43 153 -3 c144 -3 153 -4 156 -23z m183 -42 l36 -62 34
62 c34 61 35 62 82 65 26 2 47 -1 47 -7 0 -5 -27 -53 -60 -106 l-60 -96 0 -80
0 -79 -55 0 -55 0 0 75 c0 73 -1 76 -60 173 -33 55 -60 105 -60 111 0 8 19 11
57 9 l58 -3 36 -62z m404 -23 l60 -85 3 65 c4 107 6 112 55 108 l42 -3 0 -180
0 -180 -45 0 -45 0 -70 94 -70 95 -3 -97 -3 -97 -44 0 -45 0 0 178 c0 98 3
182 7 186 4 4 27 6 52 4 44 -3 46 -5 106 -88z m-525 -540 l0 -40 -50 0 -50 0
0 40 0 40 50 0 50 0 0 -40z m-712 -84 c59 -31 70 -92 24 -134 l-29 -26 34 -32
c39 -37 44 -78 13 -117 -28 -36 -76 -47 -202 -47 l-108 0 0 183 c0 101 3 187
8 192 13 14 227 -2 260 -19z m362 2 c66 -33 92 -90 88 -185 -4 -76 -18 -107
-70 -146 -61 -46 -174 -38 -232 16 -73 69 -74 209 -3 286 50 54 142 67 217 29z
m458 -1 c2 -9 -32 -68 -78 -132 -44 -63 -83 -122 -86 -130 -5 -13 7 -15 75
-15 l81 0 0 -40 0 -40 -165 0 c-165 0 -165 0 -165 23 1 12 39 76 85 142 l85
120 -75 3 -75 3 0 38 c0 21 3 41 7 45 4 3 75 5 157 4 134 -3 151 -5 154 -21z
m279 11 c12 -16 123 -335 123 -354 0 -12 -12 -14 -57 -12 -55 3 -58 4 -67 36
-9 32 -10 32 -71 32 -62 0 -62 0 -71 -32 -9 -31 -13 -33 -57 -36 -36 -2 -47 0
-47 11 0 17 104 318 120 347 9 16 21 20 64 20 31 0 58 -5 63 -12z"/>
<path d="M1383 3553 l-271 -3 -7 -70 c-4 -38 -4 -74 0 -80 4 -6 24 -8 53 -4
39 5 52 2 72 -14 l25 -20 0 -509 c0 -454 -2 -512 -17 -545 -16 -37 -62 -68
-119 -82 -25 -5 -27 -11 -34 -77 -4 -38 -5 -72 -3 -75 3 -2 75 2 162 8 136 10
182 10 334 -5 188 -18 268 -14 382 19 136 39 282 142 382 267 l38 49 0 -62 c0
-84 -18 -115 -79 -137 l-49 -17 -5 -55 c-2 -31 -4 -57 -3 -57 0 -1 48 3 106 8
72 7 157 6 271 -1 271 -19 403 17 507 134 49 56 72 119 72 197 0 108 -48 178
-162 233 l-67 33 51 38 c74 55 111 119 116 200 9 138 -48 223 -175 265 -64 21
-82 23 -299 21 l-232 -3 -31 50 c-67 109 -177 198 -306 246 -88 33 -236 55
-350 53 -49 -2 -212 -4 -362 -5z m412 -208 c96 -21 164 -56 219 -115 97 -103
132 -237 123 -470 -8 -215 -45 -319 -142 -409 -74 -67 -132 -86 -262 -86 -87
0 -105 3 -130 21 -55 41 -57 62 -44 464 16 498 21 579 38 596 19 18 108 18
198 -1z m1019 -300 c61 -31 81 -65 81 -138 0 -75 -26 -131 -76 -165 -30 -20
-41 -22 -99 -17 -113 11 -104 -4 -97 164 3 81 9 155 13 165 6 16 16 18 73 14
39 -2 82 -12 105 -23z m31 -486 c25 -12 54 -33 65 -47 59 -75 42 -207 -32
-252 -67 -41 -201 -38 -244 5 -23 23 -24 30 -24 170 l0 145 95 0 c76 0 104 -4
140 -21z"/>
<path d="M3378 1463 c-15 -42 -25 -80 -22 -85 7 -11 101 -10 108 1 6 9 -45
161 -54 161 -3 0 -17 -35 -32 -77z"/>
<path d="M807 1593 c-4 -3 -7 -87 -7 -185 l0 -178 43 0 c50 0 100 28 126 71
43 70 33 204 -18 253 -35 34 -126 58 -144 39z"/>
<path d="M1420 1564 c0 -35 0 -35 41 -32 79 6 76 68 -2 68 -38 0 -39 -1 -39
-36z"/>
<path d="M1540 875 c0 -34 1 -35 38 -35 35 0 62 14 62 31 0 19 -35 39 -66 39
-32 0 -34 -2 -34 -35z"/>
<path d="M1540 724 c0 -35 0 -35 41 -32 79 6 76 68 -2 68 -38 0 -39 -1 -39
-36z"/>
<path d="M1923 873 c-23 -55 -14 -150 17 -175 25 -20 57 -16 78 10 7 9 12 45
12 87 0 84 -16 115 -61 115 -25 0 -33 -6 -46 -37z"/>
<path d="M2712 840 c-26 -70 -26 -70 13 -70 33 0 36 2 29 23 -3 12 -12 33 -19
47 l-13 25 -10 -25z"/>
</g>
</svg>
